<?xml version="1.0" encoding="utf-8"?>
<!-- Generator: Adobe Illustrator 16.0.0, SVG Export Plug-In . SVG Version: 6.00 Build 0)  -->
<!DOCTYPE svg PUBLIC "-//W3C//DTD SVG 1.1//EN" "http://www.w3.org/Graphics/SVG/1.1/DTD/svg11.dtd">
<svg version="1.1" id="Layer_1" xmlns="http://www.w3.org/2000/svg" xmlns:xlink="http://www.w3.org/1999/xlink" x="0px" y="0px"
	 width="376.666px" height="239.667px" viewBox="0 0 376.666 239.667" enable-background="new 0 0 376.666 239.667"
	 xml:space="preserve">
<g>
	<defs>
		<rect id="SVGID_1_" width="376.666" height="239.667"/>
	</defs>
	<clipPath id="SVGID_2_">
		<use xlink:href="#SVGID_1_"  overflow="visible"/>
	</clipPath>
	<path clip-path="url(#SVGID_2_)" fill="#FCE389" d="M-24.236,241.277c-1.572-52.715,16.627-97.961,54.936-134.324
		c31.493-29.886,69.379-46.034,112.915-47.964c38.79-1.726,74.007,8.92,104.372,33.148c36.447,29.067,56.936,67.274,59.225,113.992
		c2.514,50.835-17.771,91.503-59.481,120.655c-23.392,16.354-49.862,23.889-78.688,22.948
		c-53.449-1.726-98.766-38.345-109.547-90.804c-8.527-41.59,3.622-76.791,38.703-102.166c20.401-14.746,43.691-20.146,68.504-14.968
		c34.327,7.16,56.816,34.586,59.602,66.283c2.545,29.305-16.986,55.518-44.958,60.318c-2.991,0.512-5.946,0.717-8.835,0.615
		c14.781-7.246,25.77-21.531,28.023-39.078c2.342-18.268-5.331-35.509-18.762-46.189c-5.502-4.75-12.285-8.218-19.906-9.875
		c-5.076-1.112-10.236-1.401-15.346-0.991c-0.103,0-0.204,0.017-0.324,0.017c-0.563,0.05-1.145,0.119-1.725,0.188
		c-0.48,0.035-0.94,0.102-1.401,0.17c-0.292,0.052-0.582,0.086-0.872,0.137c-0.479,0.086-0.958,0.155-1.436,0.239
		c-0.461,0.104-0.923,0.188-1.4,0.292c-0.172,0.034-0.342,0.069-0.514,0.12c-17.668,3.913-33.73,16.25-41.916,33.473
		c-13.431,28.179-5.109,61.705,15.703,82.928c27.119,27.63,69.086,33.867,104.08,15.345c38.722-20.472,57.859-53.365,56.321-96.835
		c-1.556-44.565-23.068-78.518-61.925-99.963c-43.096-23.786-86.822-20.966-129.25,2.512
		c-32.826,18.147-54.355,46.085-65.496,81.713c-9.69,30.979-8.51,62.028,1.709,92.75c9.311,28.023,25.204,51.741,47.383,71.102
		c19.035,16.575,40.926,27.835,65.41,34.363c25.939,6.92,51.963,7.176,78.074,1.947c21.428-4.271,41.471-12.372,59.943-24.128
		c37.507-23.889,63.497-56.798,76.926-99.278c15.584-49.314,10.869-97.33-11.498-143.45
		C309.45,75.187,269.465,40.431,215.418,22.062c-7.263-2.461-14.85-3.948-22.266-5.914c-1.197-0.307-2.342-0.803-3.504-1.213
		c-8.338-1.059-16.678-2.135-25.016-3.211c-5.979,0.035-11.961,0.017-17.941,0.103c-33.252,0.409-64.779,8.288-94.358,23.239
		C0.781,61.158-35.941,101.074-56.651,155.157c-4.425,11.55-6.937,23.82-10.354,35.763c-0.34,1.197-0.786,2.358-1.195,3.537
		c-1.076,8.338-2.137,16.678-3.212,25.016c0.017,8.219-0.19,16.438,0.083,24.64C-69.928,285.586-22.68,294.214-24.236,241.277z"/>
</g>
</svg>
