<?xml version="1.0" encoding="utf-8"?>
<!-- Generator: Adobe Illustrator 16.0.0, SVG Export Plug-In . SVG Version: 6.00 Build 0)  -->
<!DOCTYPE svg PUBLIC "-//W3C//DTD SVG 1.1//EN" "http://www.w3.org/Graphics/SVG/1.1/DTD/svg11.dtd">
<svg version="1.1" id="Layer_1" xmlns="http://www.w3.org/2000/svg" xmlns:xlink="http://www.w3.org/1999/xlink" x="0px" y="0px"
	 width="17.708px" height="17.647px" viewBox="0 0 17.708 17.647" enable-background="new 0 0 17.708 17.647" xml:space="preserve">
<path fill-rule="evenodd" clip-rule="evenodd" d="M17.707,8.858c-0.034,1.353-0.029,2.708-0.113,4.058
	c-0.108,1.737-0.827,3.154-2.387,4.051c-0.7,0.401-1.472,0.635-2.268,0.643c-2.737,0.029-5.477,0.069-8.211-0.009
	c-1.773-0.05-3.209-0.853-4.086-2.469c-0.444-0.821-0.623-1.724-0.629-2.647c-0.017-2.422-0.021-4.844,0.001-7.266
	c0.01-1.136,0.257-2.226,0.934-3.171c0.867-1.211,2.086-1.88,3.544-1.943C6.84,0.005,9.191,0.013,11.541,0
	c0.895-0.005,1.795,0.022,2.66,0.294c1.962,0.616,3.055,1.986,3.331,3.99c0.121,0.873,0.111,1.765,0.14,2.649
	c0.02,0.641,0.004,1.283,0.004,1.924C17.687,8.858,17.697,8.858,17.707,8.858z M16.016,8.856c0.021,0,0.043,0,0.064,0
	c0-0.326,0.009-0.652-0.002-0.978c-0.037-1.128-0.025-2.262-0.136-3.384c-0.144-1.439-1.009-2.413-2.426-2.699
	c-0.819-0.166-1.677-0.193-2.519-0.194C8.902,1.599,6.805,1.605,4.71,1.688c-1.573,0.063-2.645,1.021-2.963,2.52
	C1.652,4.653,1.61,5.116,1.604,5.572c-0.025,1.73-0.039,3.461-0.034,5.192c0.003,0.732,0.032,1.466,0.095,2.195
	c0.083,0.982,0.449,1.836,1.277,2.432c0.606,0.438,1.311,0.628,2.039,0.634c2.565,0.021,5.131,0.03,7.695-0.004
	c0.979-0.013,1.88-0.325,2.55-1.115c0.548-0.646,0.76-1.419,0.781-2.232C16.04,11.401,16.016,10.128,16.016,8.856z"/>
<path fill-rule="evenodd" clip-rule="evenodd" d="M8.824,4.293c2.542,0.001,4.56,2.038,4.553,4.596
	c-0.006,2.458-2.068,4.512-4.527,4.509c-2.556-0.003-4.586-2.032-4.576-4.575C4.282,6.3,6.301,4.292,8.824,4.293z M8.826,5.892
	c-1.629,0-2.95,1.316-2.954,2.943C5.868,10.46,7.193,11.79,8.815,11.79c1.629-0.002,2.967-1.334,2.956-2.945
	C11.76,7.204,10.451,5.892,8.826,5.892z"/>
<path fill-rule="evenodd" clip-rule="evenodd" d="M13.553,5.168c-0.601,0-1.066-0.461-1.07-1.056
	c-0.004-0.581,0.481-1.069,1.066-1.072c0.586-0.003,1.065,0.478,1.065,1.068C14.613,4.71,14.154,5.168,13.553,5.168z"/>
</svg>
