<?xml version="1.0" encoding="utf-8"?>
<!-- Generator: Adobe Illustrator 16.0.0, SVG Export Plug-In . SVG Version: 6.00 Build 0)  -->
<!DOCTYPE svg PUBLIC "-//W3C//DTD SVG 1.1//EN" "http://www.w3.org/Graphics/SVG/1.1/DTD/svg11.dtd">
<svg version="1.1" id="Layer_1" xmlns="http://www.w3.org/2000/svg" xmlns:xlink="http://www.w3.org/1999/xlink" x="0px" y="0px"
	 width="68.323px" height="68.322px" viewBox="0 0 68.323 68.322" enable-background="new 0 0 68.323 68.322" xml:space="preserve">
<g>
	<circle fill="#9BD6CE" cx="34.162" cy="34.162" r="34.162"/>
	<g>
		<path fill="#FFFFFF" d="M20.808,36.004c-0.063-2.155,0.681-4.005,2.247-5.491c1.287-1.222,2.836-1.882,4.616-1.961
			c1.586-0.07,3.025,0.365,4.268,1.355c1.49,1.188,2.327,2.75,2.422,4.66c0.102,2.079-0.727,3.742-2.433,4.933
			c-0.957,0.668-2.039,0.977-3.218,0.938c-2.185-0.071-4.037-1.568-4.478-3.712c-0.35-1.701,0.147-3.14,1.582-4.177
			c0.833-0.603,1.786-0.824,2.8-0.612c1.404,0.293,2.324,1.414,2.437,2.71c0.104,1.198-0.692,2.269-1.837,2.466
			c-0.123,0.021-0.244,0.029-0.361,0.025c0.604-0.296,1.053-0.88,1.146-1.598c0.096-0.747-0.218-1.452-0.767-1.889
			c-0.225-0.194-0.504-0.335-0.814-0.403c-0.207-0.046-0.419-0.058-0.627-0.041c-0.004,0-0.009,0-0.014,0.001
			c-0.023,0.002-0.047,0.004-0.07,0.007c-0.02,0.001-0.038,0.004-0.058,0.007c-0.011,0.001-0.023,0.003-0.035,0.005
			c-0.021,0.004-0.04,0.007-0.059,0.011c-0.02,0.003-0.038,0.007-0.058,0.011c-0.007,0.001-0.014,0.003-0.021,0.005
			c-0.723,0.16-1.378,0.664-1.713,1.368c-0.55,1.153-0.209,2.523,0.642,3.391c1.108,1.13,2.824,1.384,4.255,0.627
			c1.583-0.837,2.366-2.182,2.303-3.959c-0.063-1.822-0.942-3.21-2.531-4.087c-1.762-0.973-3.55-0.857-5.284,0.103
			c-1.343,0.742-2.223,1.884-2.678,3.341c-0.396,1.266-0.349,2.535,0.069,3.792c0.38,1.146,1.031,2.116,1.938,2.907
			c0.778,0.678,1.674,1.138,2.674,1.405c1.062,0.283,2.125,0.293,3.192,0.08c0.876-0.175,1.695-0.506,2.45-0.987
			c1.533-0.977,2.597-2.323,3.146-4.059c0.637-2.016,0.443-3.979-0.471-5.865c-1.017-2.099-2.651-3.52-4.861-4.271
			c-0.297-0.101-0.607-0.161-0.911-0.242c-0.048-0.013-0.095-0.033-0.143-0.049c-0.341-0.044-0.682-0.088-1.022-0.132
			c-0.244,0.001-0.488,0.001-0.733,0.004c-1.36,0.017-2.648,0.338-3.857,0.95c-2.108,1.066-3.609,2.699-4.456,4.91
			c-0.181,0.472-0.284,0.974-0.424,1.462c-0.014,0.049-0.032,0.097-0.049,0.145c-0.043,0.342-0.088,0.682-0.131,1.023
			c0.001,0.335-0.008,0.672,0.004,1.007C18.94,37.816,20.872,38.169,20.808,36.004z"/>
		<rect x="55.409" y="22.067" fill="#FFFFFF" width="1.904" height="14.502"/>
		<rect x="52.862" y="26.002" fill="#FFFFFF" width="7.521" height="1.943"/>
		<rect x="38.998" y="33.524" fill="#FFFFFF" width="12.886" height="1.942"/>
		<path fill="#FFFFFF" d="M60.854,39.953c-1.954,0-3.544-1.59-3.544-3.543v0h-1.9v0c0,3.006,2.438,5.444,5.444,5.444
			c0.525,0,0.95-0.425,0.95-0.95C61.804,40.378,61.379,39.953,60.854,39.953z"/>
		<path fill="#FFFFFF" d="M49.228,35.467"/>
		<path fill="#FFFFFF" d="M44.977,26.583c-4.37,0-7.913,3.542-7.913,7.913s3.543,7.913,7.913,7.913c1.356,0,2.632-0.342,3.748-0.943
			c0.022-0.011,0.044-0.022,0.065-0.035c0.004-0.002,0.006-0.003,0.009-0.005c0.002,0,0.002-0.001,0.003-0.001
			c0.293-0.177,0.492-0.499,0.492-0.867c0-0.559-0.454-1.012-1.013-1.012c-0.253,0-0.483,0.092-0.66,0.245
			c-0.005,0-0.01,0-0.014,0.002c-0.793,0.396-1.687,0.619-2.631,0.619c-3.262,0-5.915-2.653-5.915-5.915s2.653-5.915,5.915-5.915
			c3.261,0,5.915,2.654,5.915,5.915c0,0.331-0.029,0.655-0.081,0.971h2.018c0.039-0.318,0.062-0.642,0.062-0.971
			C52.89,30.125,49.347,26.583,44.977,26.583z"/>
		<g>
			<rect x="18.894" y="35.369" fill="#FFFFFF" width="1.904" height="1.934"/>
			<rect x="6.642" y="27.071" fill="#FFFFFF" width="11.234" height="1.943"/>
			
				<rect x="11.227" y="26.791" transform="matrix(0.787 0.617 -0.617 0.787 24.042 -0.1221)" fill="#FFFFFF" width="1.942" height="15.927"/>
			<rect x="6.521" y="40.429" fill="#FFFFFF" width="9.138" height="1.943"/>
			<path fill="#FFFFFF" d="M15.339,40.471c1.955,0,3.545-1.59,3.545-3.544l0,0h1.9l0,0c0,3.007-2.438,5.444-5.445,5.444
				c-0.524,0-0.95-0.426-0.95-0.95C14.389,40.896,14.814,40.471,15.339,40.471z"/>
		</g>
	</g>
</g>
</svg>
