<?xml version="1.0" encoding="utf-8"?>
<!-- Generator: Adobe Illustrator 16.0.0, SVG Export Plug-In . SVG Version: 6.00 Build 0)  -->
<!DOCTYPE svg PUBLIC "-//W3C//DTD SVG 1.1//EN" "http://www.w3.org/Graphics/SVG/1.1/DTD/svg11.dtd">
<svg version="1.1" id="Layer_1" xmlns="http://www.w3.org/2000/svg" xmlns:xlink="http://www.w3.org/1999/xlink" x="0px" y="0px"
	 width="267.72px" height="413.216px" viewBox="0 0 267.72 413.216" enable-background="new 0 0 267.72 413.216"
	 xml:space="preserve">
<g>
	<path fill="#FFFFFF" d="M267.72,276.375c-8.699,4.477-18.127,7.863-28.166,9.927c-40.303,8.262-74.415-3.511-99.004-37.507
		c-14.29-19.769-19.522-42.338-14.506-66.383c6.938-33.266,33.516-55.058,64.231-57.757c28.397-2.466,53.8,16.461,58.452,43.566
		c0.495,2.898,0.694,5.763,0.596,8.562c-7.021-14.324-20.864-24.972-37.868-27.156c-17.703-2.27-34.411,5.166-44.761,18.181
		c-4.603,5.331-7.963,11.905-9.568,19.29c-1.077,4.919-1.357,9.919-0.961,14.87c0,0.1,0.016,0.199,0.016,0.315
		c0.049,0.546,0.116,1.109,0.183,1.671c0.033,0.466,0.099,0.911,0.165,1.358c0.05,0.283,0.083,0.563,0.133,0.845
		c0.084,0.464,0.149,0.928,0.231,1.39c0.101,0.447,0.182,0.895,0.282,1.358c0.032,0.167,0.066,0.332,0.115,0.498
		c3.792,17.121,15.748,32.687,32.438,40.619c26.281,12.525,57.357,5.521,77.991-13.004V109.241
		c-19.295-20.881-45.077-30.988-76.599-29.873c-43.187,1.507-76.089,22.354-96.87,60.008c-23.05,41.762-20.316,84.135,2.436,125.25
		c17.585,31.811,44.657,52.674,79.185,63.469c30.02,9.391,60.106,8.246,89.879-1.656c0.663-0.221,1.312-0.462,1.97-0.689V276.375z"
		/>
	<path fill="#FFFFFF" d="M222.448,367.441c-51.083,1.523-94.931-16.112-130.167-53.236c-28.961-30.518-44.609-67.23-46.479-109.42
		c-1.674-37.589,8.644-71.716,32.123-101.142c28.167-35.319,65.191-55.173,110.463-57.392c30.267-1.497,56.807,5.361,79.332,20.236
		V15.344c-5.628-2.422-11.446-4.595-17.47-6.499C202.462-6.255,155.934-1.687,111.24,19.988
		C61.498,44.081,27.817,82.83,10.02,135.204c-2.386,7.038-3.828,14.39-5.731,21.576c-0.298,1.16-0.778,2.269-1.175,3.395
		c-1.026,8.08-2.071,16.162-3.113,24.242c0.034,5.794,0.016,11.591,0.1,17.386c0.396,32.222,8.031,62.775,22.519,91.438
		c25.285,49.956,63.968,85.542,116.375,105.612c11.193,4.289,23.084,6.724,34.657,10.035c1.16,0.33,2.285,0.762,3.429,1.158
		c8.078,1.043,16.161,2.07,24.24,3.111c7.965-0.015,15.93,0.186,23.877-0.079C265.388,411.72,273.747,365.932,222.448,367.441z"/>
</g>
</svg>
