<?xml version="1.0" encoding="utf-8"?>
<!-- Generator: Adobe Illustrator 16.0.0, SVG Export Plug-In . SVG Version: 6.00 Build 0)  -->
<!DOCTYPE svg PUBLIC "-//W3C//DTD SVG 1.1//EN" "http://www.w3.org/Graphics/SVG/1.1/DTD/svg11.dtd">
<svg version="1.1" id="Layer_1" xmlns="http://www.w3.org/2000/svg" xmlns:xlink="http://www.w3.org/1999/xlink" x="0px" y="0px"
	 width="313.048px" height="204.435px" viewBox="0 0 313.048 204.435" enable-background="new 0 0 313.048 204.435"
	 xml:space="preserve">
<g>
	<path fill="#FFFFFF" d="M176.871,192.459c2.064-16.111-4.702-31.319-16.549-40.739c-4.853-4.188-10.835-7.248-17.557-8.71
		c-4.477-0.979-9.029-1.234-13.535-0.874c-0.09,0-0.18,0.015-0.285,0.015c-0.498,0.045-1.01,0.106-1.521,0.167
		c-0.425,0.029-0.83,0.089-1.236,0.149c-0.258,0.046-0.514,0.076-0.77,0.121c-0.422,0.076-0.846,0.137-1.266,0.21
		c-0.407,0.091-0.814,0.167-1.235,0.257c-0.151,0.03-0.302,0.06-0.453,0.104c-15.583,3.452-29.75,14.334-36.97,29.524
		c-4.756,9.979-6.413,20.717-5.513,31.208l94.132-0.716C175.443,199.804,176.389,196.218,176.871,192.459z"/>
	<path fill="#FFFFFF" d="M86.61,127.924c17.993-13.007,38.535-17.769,60.421-13.203c30.275,6.315,50.111,30.506,52.568,58.462
		c0.939,10.826-1.546,21.167-6.555,29.849l44.95-0.342c2.23-8.893,3.187-18.478,2.823-28.737
		c-1.372-39.308-20.346-69.254-54.618-88.168c-38.011-20.979-76.577-18.492-113.999,2.217
		c-28.952,16.005-47.941,40.645-57.768,72.07c-4.626,14.787-6.42,29.594-5.685,44.363l41.734-0.318
		C48.063,173.482,59.664,147.415,86.61,127.924z"/>
	<path fill="#FFFFFF" d="M0,117.298c7.204-11.882,16.22-23.002,27.077-33.307c27.776-26.36,61.192-40.603,99.591-42.304
		c34.213-1.523,65.273,7.867,92.057,29.236c32.146,25.637,50.217,59.336,52.236,100.541c0.537,10.863-0.117,21.194-1.924,30.988
		l42.025-0.32c5.427-34.524-0.367-68.243-16.198-100.886c-21.929-45.274-57.196-75.929-104.865-92.129
		c-6.405-2.171-13.098-3.483-19.639-5.216c-1.056-0.271-2.065-0.708-3.09-1.069C159.916,1.899,152.561,0.95,145.207,0
		c-5.274,0.03-10.551,0.014-15.824,0.09c-29.329,0.361-57.137,7.309-83.226,20.497C28.857,29.343,13.456,39.871,0,52.174V117.298z"
		/>
</g>
</svg>
