<?xml version="1.0" encoding="utf-8"?>
<!-- Generator: Adobe Illustrator 16.0.0, SVG Export Plug-In . SVG Version: 6.00 Build 0)  -->
<!DOCTYPE svg PUBLIC "-//W3C//DTD SVG 1.1//EN" "http://www.w3.org/Graphics/SVG/1.1/DTD/svg11.dtd">
<svg version="1.1" id="Layer_1" xmlns="http://www.w3.org/2000/svg" xmlns:xlink="http://www.w3.org/1999/xlink" x="0px" y="0px"
	 width="144.55px" height="191.019px" viewBox="0 0 144.55 191.019" enable-background="new 0 0 144.55 191.019"
	 xml:space="preserve">
<g>
	<path fill="#F38181" d="M86.73,70.136c-7.475,4.197-11.785,11.852-12.047,19.834c-0.246,3.375,0.342,6.872,1.839,10.18
		c0.993,2.205,2.319,4.213,3.891,6.008c0.028,0.039,0.063,0.072,0.097,0.117c0.175,0.195,0.361,0.394,0.549,0.592
		c0.146,0.17,0.299,0.322,0.453,0.477c0.1,0.094,0.193,0.193,0.293,0.287c0.165,0.154,0.324,0.314,0.487,0.47
		c0.167,0.144,0.327,0.293,0.498,0.442c0.06,0.055,0.12,0.109,0.187,0.159c6.368,5.515,15.438,8.09,24.145,6.364
		c14.258-2.806,24.473-15.224,26.623-28.892c2.793-17.804-6.53-35.214-23.168-43.146c-18.399-8.782-36.002-6.799-51.816,5.847
		C42.543,61.83,35.831,79.295,38.607,99.767c3.08,22.706,16.275,38.258,36.828,47.59c15.895,7.225,32.311,7.512,48.715,1.781
		c7.643-2.67,14.419-6.521,20.399-11.411v-34.449c-2.043,4.073-4.647,7.942-7.823,11.499c-13.17,14.734-29.695,19.969-48.916,13.908
		c-11.174-3.527-19.658-10.729-24.614-21.437c-6.856-14.813-2.854-30.83,8.214-40.672c10.242-9.088,25.459-9.07,35.02,0.048
		c1.021,0.975,1.919,2.022,2.684,3.129C102.301,66.244,93.913,66.105,86.73,70.136z"/>
	<path fill="#F38181" d="M144.55,157.156c-17.054,10.527-36.011,14.162-56.606,10.578c-19.91-3.468-36.463-13.138-49.273-28.867
		c-11.415-14.014-17.217-30.127-16.596-48.198c0.739-21.688,9.324-39.952,26.143-53.779c18.295-15.054,39.121-18.768,61.594-11.279
		c12.604,4.198,22.77,11.995,30.423,23.026c1.648,2.374,3.081,4.84,4.316,7.37V20.827c-7.326-6.43-15.604-11.418-24.749-14.911
		c-19.34-7.379-38.852-7.952-58.451-1.174c-22.751,7.871-39.381,22.966-50.4,44.128c-12.273,23.542-14.156,48.13-6.012,73.424
		c1.098,3.396,2.648,6.643,3.973,9.96c0.219,0.532,0.352,1.097,0.52,1.646c1.92,3.409,3.834,6.824,5.746,10.238
		c1.674,2.224,3.328,4.463,5.021,6.674c9.385,12.311,21.083,21.9,34.882,28.801c24.062,12.014,49.173,14.65,75.128,7.371
		c4.896-1.373,9.587-3.457,14.343-5.33V157.156z"/>
</g>
</svg>
